<?xml version="1.0" encoding="utf-8"?>
<!-- Generator: Adobe Illustrator 23.0.3, SVG Export Plug-In . SVG Version: 6.00 Build 0)  -->
<svg version="1.1" id="Capa_1" xmlns="http://www.w3.org/2000/svg" xmlns:xlink="http://www.w3.org/1999/xlink" x="0px" y="0px"
	 viewBox="0 0 116.3 116.3" style="enable-background:new 0 0 116.3 116.3;" xml:space="preserve">
<style type="text/css">
	.st0{fill:#242424;}
	.st1{fill:#211F20;}
	.st2{fill:#232323;}
	.st3{fill:#252525;}
	.st4{fill:#222222;}
	.st5{fill:#1F1F1F;}
	.st6{fill:#211E1F;}
	.st7{fill:#201E1F;}
	.st8{fill:#212020;}
	.st9{fill:#221F20;}
	.st10{fill:#222021;}
	.st11{fill:#201F20;}
	.st12{fill:#0383B2;}
	.st13{fill:#66B623;}
	.st14{fill:#1AAC6E;}
	.st15{fill:#FF3530;}
	.st16{fill:#111224;}
	.st17{fill:#FEFEFE;}
	.st18{fill:#F8F8F8;}
	.st19{fill:#FDFDFD;}
	.st20{fill:#262626;}
	.st21{fill:#FBFBFB;}
	.st22{fill:#FCFAFB;}
	.st23{fill:#201D1E;}
	.st24{fill:#FDFCFC;}
	.st25{fill:#FBFAFB;}
	.st26{fill:#2A2A2A;}
	.st27{fill:#FEFDFD;}
	.st28{fill:#FDFCFD;}
	.st29{fill:#FCFDFD;}
	.st30{fill:#FDFBFC;stroke:#2A2A2A;stroke-width:6;stroke-miterlimit:10;}
	.st31{fill:#FDFBFC;stroke:#2A2A2A;stroke-width:6;stroke-linecap:round;stroke-miterlimit:10;}
	.st32{fill:#FDFBFC;}
	.st33{fill:#F3F1F2;}
	.st34{fill:#F7F5F6;}
	.st35{fill:#F4F2F3;}
	.st36{fill:#244959;}
	.st37{fill:#FF6D3A;}
	.st38{fill:#12E2E2;}
	.st39{fill:#F1C667;}
	.st40{fill:#F0C76D;}
	.st41{fill:#FFDF8E;}
	.st42{fill:#2C4156;}
	.st43{fill:#12E2E2;stroke:#244959;stroke-width:6;stroke-miterlimit:10;}
	.st44{fill:#18AE89;}
</style>
<g>
	<path class="st44" d="M14.6,36c4.1,2.5,8.9,5.3,13.6,8.3c0.9,0.6,0.8,2,0.2,3c-0.6,1-1.8,1.5-2.8,1c-4.6-2.5-9.1-5.1-13.6-7.8
		c-1-0.6-1.2-1.8-0.7-2.9C11.8,36.5,12.6,35.9,14.6,36z"/>
	<path class="st44" d="M33.1,16.4c1.3,0.2,2.2,0.8,2.7,1.8c2.2,3.8,4.4,7.5,6.5,11.3c0.8,1.5,1.2,3.1-0.5,4.1
		c-1.8,1.1-3.2,0.3-4.2-1.5c-2.1-3.8-4.4-7.5-6.6-11.3C29.9,18.5,30.8,17,33.1,16.4z"/>
	<path class="st44" d="M79.2,34.1c-2.5-0.6-3-2.1-1.9-4.2c2.2-4,4.4-7.8,6.7-11.7c0.9-1.5,2.1-2.4,3.9-1.4c1.7,1,1.6,2.5,0.7,4
		c-2.2,3.9-4.5,7.8-6.8,11.7C81.3,33.6,80.5,34.2,79.2,34.1z"/>
	<path class="st44" d="M108.8,38.5c-0.1,1.4-0.9,2.2-2.1,2.9c-3.5,2-7,4.1-10.5,6c-1.6,0.9-3.5,1.9-4.8-0.5c-1-2,0.4-3.2,2-4.1
		c3.6-2.1,7.2-4.3,10.9-6.2C106.7,35.4,108.8,36.4,108.8,38.5z"/>
	<path class="st44" d="M62.5,19c0,2.5,0.1,5,0,7.4c-0.1,1.6-1,2.6-2.7,2.5c-1.4-0.1-2.3-1-2.3-2.4c-0.1-5-0.1-9.9,0-14.9
		c0-1.4,0.9-2.3,2.4-2.2c1.7,0,2.6,1,2.6,2.6C62.6,14.3,62.5,16.7,62.5,19z"/>
	<path class="st44" d="M13.7,67.9c-2.3,0-4.7,0-7,0c-1.7,0-2.7-1-2.7-2.6c0-1.6,1-2.5,2.7-2.5c4.7,0,9.3,0,14,0
		c1.6,0,2.9,0.6,2.9,2.3c0.1,1.8-1.1,2.8-3,2.8C18.3,67.9,16,67.9,13.7,67.9z"/>
	<path class="st44" d="M106.3,62.8c2.2,0,4.3,0,6.5,0c1.8,0,3,0.6,3,2.6c0,1.8-1.2,2.4-2.8,2.4c-4.6,0-9.3,0-13.9,0
		c-1.6,0-2.8-0.9-2.9-2.4c-0.1-1.9,1.3-2.6,3-2.7C101.7,62.8,104,62.8,106.3,62.8z"/>
	<path class="st16" d="M95.2,89.2c0-2.5-0.8-4-3.5-3.7c-3.1,0.4-3.1-1.5-3-3.7c0.1-5.6,0.1-11.2,0-16.8c-0.1-16.2-12.7-29-28.5-29
		c-16,0-28.6,12.4-28.9,28.6c-0.1,5.9,0,11.8,0,17.8c0,1.5,0.3,3.4-2.2,3.1c-3.9-0.5-4.4,1.8-4.3,4.8c0.1,2.6,0.2,5.3,0,7.9
		c-0.2,3.3,1.3,4.3,4.4,4.3c10.1-0.1,20.2,0,30.4-0.1c7.8,0,15.6,0.1,23.4,0C97.5,102.1,94.9,105.2,95.2,89.2z M36.5,63.7
		c0.6-12.8,11.2-22.7,24-22.4c12.5,0.2,22.6,10.3,22.9,23c0.1,5.9-0.2,11.8,0.1,17.7c0.1,3.1-1.1,3.5-3.8,3.5
		c-6.7-0.2-13.4-0.1-20.1-0.1c-6.7,0-13.4-0.1-20.1,0c-2.3,0-3.3-0.5-3.2-3.1C36.5,76.1,36.2,69.9,36.5,63.7z M86.6,97.3
		c-17.7-0.1-35.4-0.1-53.2,0c-2.5,0-3.6-0.5-3.6-3.3c0-2.8,1-3.3,3.6-3.3c8.7,0.2,17.4,0.1,26.1,0.1c9,0,18,0.1,27-0.1
		c2.3,0,3.4,0.4,3.3,3C89.8,96,89.6,97.3,86.6,97.3z"/>
</g>
</svg>
