<?xml version="1.0" encoding="UTF-8" standalone="no"?> <svg xmlns="http://www.w3.org/2000/svg" viewBox="0 0 107.3 107.3"><defs><style>.cls-1{fill:red;}</style></defs><title>Asset 3</title><g id="Layer_2" data-name="Layer 2"><g id="图层_1" data-name="图层 1"><path class="cls-1" d="M85.3,45.51A13.78,13.78,0,0,0,71.52,31.74H35.78A13.78,13.78,0,0,0,22,45.51V62.26A13.78,13.78,0,0,0,35.78,76H71.52A13.78,13.78,0,0,0,85.3,62.26ZM62.75,54.73,48.5,62.55c-.62.33-1.18-.11-1.18-.82v-16c0-.72.58-1.16,1.2-.81l14.35,8.23A.93.93,0,0,1,62.75,54.73Z"/><path class="cls-1" d="M88.49,6.89a11.94,11.94,0,0,1,11.92,11.92V88.49a11.94,11.94,0,0,1-11.92,11.92H18.81A11.94,11.94,0,0,1,6.89,88.49V18.81A11.94,11.94,0,0,1,18.81,6.89H88.49m0-6.89H18.81A18.81,18.81,0,0,0,0,18.81V88.49A18.81,18.81,0,0,0,18.81,107.3H88.49A18.81,18.81,0,0,0,107.3,88.49V18.81A18.81,18.81,0,0,0,88.49,0Z"/></g></g></svg>